#define arc_2_width 15
#define arc_2_height 20
static unsigned char arc_2_bits[] = {
   0x08, 0x00, 0x1c, 0x00, 0x7e, 0x00, 0x7e, 0x00, 0xff, 0x00, 0xfe, 0x01,
   0xfc, 0x03, 0xf8, 0x07, 0xf0, 0x07, 0xe0, 0x0f, 0xe0, 0x0f, 0xc0, 0x1f,
   0xc0, 0x1f, 0x80, 0x1f, 0x80, 0x3f, 0x00, 0x3f, 0x00, 0x3f, 0x00, 0x3f,
   0x00, 0x7e, 0x00, 0x06 };
