#define arc_19_width 21
#define arc_19_height 11
static unsigned char arc_19_bits[] = {
   0x00, 0x00, 0x02, 0x00, 0x80, 0x03, 0x00, 0xe0, 0x07, 0x00, 0xf8, 0x0f,
   0x00, 0xff, 0x1f, 0xff, 0xff, 0x0f, 0xff, 0xff, 0x07, 0xff, 0xff, 0x01,
   0xff, 0x7f, 0x00, 0xff, 0x0f, 0x00, 0xff, 0x00, 0x00 };
