#define arc_0_width 8
#define arc_0_height 22
static unsigned char arc_0_bits[] = {
   0x30, 0x3e, 0x7f, 0x7e, 0x7e, 0x7e, 0xfc, 0xfc, 0xfc, 0xfc, 0xfc, 0xfc,
   0xfc, 0xfc, 0xfc, 0xfc, 0x7e, 0x7e, 0x7e, 0x7f, 0x3c, 0x20 };
