#define arc_17_width 21
#define arc_17_height 10
static unsigned char arc_17_bits[] = {
   0x1c, 0x00, 0x00, 0x7e, 0x00, 0x00, 0xfe, 0x01, 0x00, 0xff, 0x0f, 0x00,
   0xff, 0xff, 0x0f, 0xfe, 0xff, 0x1f, 0xf8, 0xff, 0x1f, 0xe0, 0xff, 0x1f,
   0x00, 0xff, 0x1f, 0x00, 0xf0, 0x1f };
