#define arc_21_width 18
#define arc_21_height 18
static unsigned char arc_21_bits[] = {
   0x00, 0x70, 0x00, 0x00, 0xf8, 0x01, 0x00, 0xf8, 0x03, 0x00, 0xfc, 0x01,
   0x00, 0xfc, 0x01, 0x00, 0xfe, 0x00, 0x00, 0xff, 0x00, 0x80, 0x7f, 0x00,
   0xc0, 0x3f, 0x00, 0xe0, 0x1f, 0x00, 0xf8, 0x0f, 0x00, 0xfe, 0x0f, 0x00,
   0xff, 0x03, 0x00, 0xff, 0x01, 0x00, 0xfe, 0x00, 0x00, 0x7e, 0x00, 0x00,
   0x1c, 0x00, 0x00, 0x04, 0x00, 0x00 };
