#define arc_18_width 22
#define arc_18_height 8
static unsigned char arc_18_bits[] = {
   0x04, 0x00, 0x08, 0x3c, 0x00, 0x1f, 0xfe, 0xff, 0x1f, 0xfe, 0xff, 0x1f,
   0xfe, 0xff, 0x3f, 0xff, 0xff, 0x3f, 0xfc, 0xff, 0x0f, 0xc0, 0xff, 0x00 };
