#define arc_1_width 11
#define arc_1_height 21
static unsigned char arc_1_bits[] = {
   0x10, 0x00, 0x38, 0x00, 0x7c, 0x00, 0x7f, 0x00, 0xfe, 0x00, 0xfe, 0x00,
   0xfc, 0x01, 0xfc, 0x01, 0xf8, 0x01, 0xf8, 0x03, 0xf0, 0x03, 0xf0, 0x03,
   0xf0, 0x03, 0xe0, 0x07, 0xe0, 0x07, 0xe0, 0x07, 0xe0, 0x07, 0xe0, 0x07,
   0xe0, 0x07, 0xe0, 0x07, 0xe0, 0x07 };
