#define arc_22_width 15
#define arc_22_height 19
static unsigned char arc_22_bits[] = {
   0x00, 0x3e, 0x00, 0x7e, 0x00, 0x3f, 0x00, 0x3f, 0x00, 0x3f, 0x80, 0x3f,
   0x80, 0x1f, 0xc0, 0x1f, 0xc0, 0x1f, 0xe0, 0x0f, 0xe0, 0x0f, 0xf0, 0x07,
   0xf8, 0x07, 0xfc, 0x03, 0xfe, 0x01, 0xff, 0x00, 0x7e, 0x00, 0x7c, 0x00,
   0x18, 0x00 };
