#define arc_20_width 20
#define arc_20_height 15
static unsigned char arc_20_bits[] = {
   0x00, 0x80, 0x00, 0x00, 0xc0, 0x03, 0x00, 0xe0, 0x07, 0x00, 0xf0, 0x0f,
   0x00, 0xf8, 0x07, 0x00, 0xfe, 0x03, 0x80, 0xff, 0x03, 0xe0, 0xff, 0x00,
   0xfc, 0x7f, 0x00, 0xff, 0x3f, 0x00, 0xff, 0x1f, 0x00, 0xfe, 0x07, 0x00,
   0xfe, 0x01, 0x00, 0x3e, 0x00, 0x00, 0x02, 0x00, 0x00 };
