#define arc_16_width 19
#define arc_16_height 15
static unsigned char arc_16_bits[] = {
   0x08, 0x00, 0x00, 0x1c, 0x00, 0x00, 0x3e, 0x00, 0x00, 0x7f, 0x00, 0x00,
   0xff, 0x00, 0x00, 0xfe, 0x03, 0x00, 0xfe, 0x0f, 0x00, 0xf8, 0x3f, 0x00,
   0xf0, 0xff, 0x01, 0xe0, 0xff, 0x07, 0xc0, 0xff, 0x07, 0x00, 0xff, 0x07,
   0x00, 0xfc, 0x07, 0x00, 0xe0, 0x07, 0x00, 0x00, 0x02 };
