#define arc_23_width 10
#define arc_23_height 21
static unsigned char arc_23_bits[] = {
   0xe0, 0x03, 0xf0, 0x03, 0xf0, 0x03, 0xf0, 0x03, 0xf0, 0x03, 0xf0, 0x03,
   0xf0, 0x03, 0xf0, 0x03, 0xf0, 0x03, 0xf8, 0x01, 0xf8, 0x01, 0xf8, 0x01,
   0xfc, 0x01, 0xfc, 0x00, 0xfe, 0x00, 0xfe, 0x00, 0x7f, 0x00, 0x7f, 0x00,
   0x3f, 0x00, 0x3e, 0x00, 0x18, 0x00 };
